<?xml version="1.0" encoding="UTF-8" standalone="no"?>
<!-- Generator: Adobe Illustrator 15.0.0, SVG Export Plug-In . SVG Version: 6.00 Build 0)  -->

<svg
   xmlns:dc="http://purl.org/dc/elements/1.1/"
   xmlns:cc="http://creativecommons.org/ns#"
   xmlns:rdf="http://www.w3.org/1999/02/22-rdf-syntax-ns#"
   xmlns:svg="http://www.w3.org/2000/svg"
   xmlns="http://www.w3.org/2000/svg"
   xmlns:sodipodi="http://sodipodi.sourceforge.net/DTD/sodipodi-0.dtd"
   xmlns:inkscape="http://www.inkscape.org/namespaces/inkscape"
   version="1.1"
   id="Layer_1"
   x="0px"
   y="0px"
   width="278.672"
   height="36.337002"
   viewBox="0 0 278.67201 36.337002"
   enable-background="new 0 0 345.86 500"
   xml:space="preserve"
   inkscape:version="0.92.4 (5da689c313, 2019-01-14)"
   sodipodi:docname="tesla-motors-logo.svg"><metadata
     id="metadata43"><rdf:RDF><cc:Work
         rdf:about=""><dc:format>image/svg+xml</dc:format><dc:type
           rdf:resource="http://purl.org/dc/dcmitype/StillImage" /><dc:title></dc:title></cc:Work></rdf:RDF></metadata><defs
     id="defs41" /><sodipodi:namedview
     pagecolor="#ffffff"
     bordercolor="#666666"
     borderopacity="1"
     objecttolerance="10"
     gridtolerance="10"
     guidetolerance="10"
     inkscape:pageopacity="0"
     inkscape:pageshadow="2"
     inkscape:window-width="1920"
     inkscape:window-height="1017"
     id="namedview39"
     showgrid="false"
     inkscape:showpageshadow="false"
     borderlayer="false"
     fit-margin-top="0"
     fit-margin-left="0"
     fit-margin-right="0"
     fit-margin-bottom="0"
     inkscape:zoom="1.0423407"
     inkscape:cx="-17.257686"
     inkscape:cy="30.055152"
     inkscape:window-x="-8"
     inkscape:window-y="-8"
     inkscape:window-maximized="1"
     inkscape:current-layer="Layer_1" /><g
     id="TESLA"
     transform="translate(-28.524,-388.898)"
     style="fill:#ffffff"><g
       id="g8"
       style="fill:#ffffff"><polyline
         points="266.601,403.28 266.601,425.192 273.628,425.192 273.628,410.603 299.203,410.603     299.203,425.192 306.225,425.192 306.225,403.318 266.601,403.28   "
         id="polyline10"
         style="fill:#ffffff;fill-opacity:1" /><path
         d="m 272.845,396.192 h 27.02 c 3.753,-0.746 6.544,-4.058 7.331,-7.262 h -41.681 c 0.779,3.205 3.611,6.516 7.33,7.262"
         id="path12"
         style="fill:#ffffff;fill-opacity:1"
         inkscape:connector-curvature="0" /></g><g
       id="g14"
       style="fill:#ffffff"><path
         d="m 245.319,425.206 c 3.543,-1.502 5.449,-4.1 6.179,-7.14 h -31.517 l 0.02,-29.118 -7.065,0.02 v 36.238 h 32.383"
         id="path16"
         style="fill:#ffffff;fill-opacity:1"
         inkscape:connector-curvature="0" /></g><g
       id="g18"
       style="fill:#ffffff"><path
         d="m 160.398,396.094 h 24.954 c 3.762,-1.093 6.921,-3.959 7.691,-7.136 h -39.64 v 21.415 h 32.444 v 7.515 l -25.449,0.02 c -3.988,1.112 -7.37,3.79 -9.057,7.327 l 2.062,-0.038 h 39.415 v -21.944 h -32.42 v -7.159"
         id="path20"
         style="fill:#ffffff;fill-opacity:1"
         inkscape:connector-curvature="0" /></g><g
       id="g22"
       style="fill:#ffffff"><path
         d="m 98.795,396.163 h 27.011 c 3.758,-0.749 6.551,-4.058 7.334,-7.265 H 91.461 c 0.778,3.207 3.612,6.516 7.334,7.265"
         id="path24"
         style="fill:#ffffff;fill-opacity:1"
         inkscape:connector-curvature="0" /><path
         d="m 98.795,410.485 h 27.011 c 3.758,-0.741 6.551,-4.053 7.334,-7.262 H 91.461 c 0.778,3.21 3.612,6.521 7.334,7.262"
         id="path26"
         style="fill:#ffffff;fill-opacity:1"
         inkscape:connector-curvature="0" /><path
         d="m 98.795,425.202 h 27.011 c 3.758,-0.747 6.551,-4.058 7.334,-7.263 H 91.461 c 0.778,3.206 3.612,6.516 7.334,7.263"
         id="path28"
         style="fill:#ffffff;fill-opacity:1"
         inkscape:connector-curvature="0" /></g><g
       id="g30"
       style="fill:#ffffff"><path
         d="m 28.524,388.986 c 0.812,3.167 3.554,6.404 7.316,7.215 h 11.37 l 0.58,0.229 v 28.691 h 7.1 V 396.43 l 0.645,-0.229 h 11.38 c 3.804,-0.98 6.487,-4.048 7.285,-7.215 v -0.07 H 28.524 v 0.07"
         id="path32"
         style="fill:#ffffff;fill-opacity:1"
         inkscape:connector-curvature="0" /></g></g></svg>